<?xml version="1.0" encoding="UTF-8" standalone="no"?>
<svg width="4767px" height="340px" viewBox="0 0 4767 340" version="1.1" xmlns="http://www.w3.org/2000/svg" xmlns:xlink="http://www.w3.org/1999/xlink" xmlns:sketch="http://www.bohemiancoding.com/sketch/ns">
    <!-- Generator: Sketch 3.0.3 (7892) - http://www.bohemiancoding.com/sketch -->
    <title>logo + the xiph open source</title>
    <desc>Created with Sketch.</desc>
    <defs></defs>
    <g id="Page-1" stroke="none" stroke-width="1" fill="none" fill-rule="evenodd" sketch:type="MSPage">
        <g id="logo-+-the-xiph-open-source" sketch:type="MSLayerGroup" transform="translate(0.000000, -85.000000)">
            <g id="logo" transform="translate(255.000000, 255.000000) rotate(45.000000) translate(-255.000000, -255.000000) translate(75.000000, 75.000000)" sketch:type="MSShapeGroup">
                <path d="M-0.349021519,239.980566 L-0.349021519,359.985891 L119.965974,359.985891 L119.965974,239.980566 L-0.349021519,239.980566 Z" id="Rectangle-1" fill="#F03535"></path>
                <path d="M119.650978,239.980566 L119.650978,359.985891 L239.965974,359.985891 L239.965974,239.980566 L119.650978,239.980566 Z" id="Rectangle-3" fill="#FAAC17"></path>
                <path d="M119.650978,119.980566 L119.650978,239.985891 L239.965974,239.985891 L239.965974,119.980566 L119.650978,119.980566 Z" id="Rectangle-4" fill="#3D5F85"></path>
                <path d="M119.650978,-0.019434209 L119.650978,119.985891 L239.965974,119.985891 L239.965974,-0.0194342332 L119.650978,-0.019434209 Z" id="Rectangle-5" fill="#4AB83E"></path>
                <path d="M239.650978,-0.019434209 L239.650978,119.985891 L359.965974,119.985891 L359.965974,-0.0194342332 L239.650978,-0.019434209 Z" id="Rectangle-6" fill="#BD2862"></path>
                <path d="M239.650978,119.980566 L239.650978,239.985891 L359.965974,239.985891 L359.965974,119.980566 L239.650978,119.980566 Z" id="Rectangle-7" fill="#82D6E1"></path>
                <path d="M-0.349021519,119.980566 L-0.349021519,239.985891 L119.965974,239.985891 L119.965974,119.980566 L-0.349021519,119.980566 Z" id="Rectangle-2" fill="#A2C4DA"></path>
            </g>
            <path d="M604,204.125 L585.875,204.125 C584.833328,204.125 584.3125,201.937522 584.3125,197.5625 C584.3125,196.312494 584.416666,195.583334 584.625,195.375 C590.666697,192.666653 597.229131,187.145875 604.3125,178.8125 C606.604178,176.104153 608.843739,173.031267 611.03125,169.59375 C613.218761,166.156233 615.041659,163.187512 616.5,160.6875 C617.958341,158.187487 618.6875,156.833334 618.6875,156.625 C624.937531,156.625 628.0625,157.145828 628.0625,158.1875 L628.0625,189.125 C633.479194,189.125 641.708278,189.177083 652.75,189.28125 C663.791722,189.385417 669.624997,189.4375 670.25,189.4375 C671.916675,189.4375 672.75,190.374991 672.75,192.25 C672.75,196.000019 671.708344,199.958312 669.625,204.125 L628.0625,204.125 L628.0625,280.6875 C628.0625,289.020875 630.197895,295.687475 634.46875,300.6875 C638.739605,305.687525 644.312466,308.1875 651.1875,308.1875 C657.437531,308.1875 663.8958,306.208353 670.5625,302.25 C671.187503,301.833331 672.124994,302.718739 673.375,304.90625 C674.625006,307.093761 675.145834,308.291666 674.9375,308.5 C671.812484,311.83335 667.020866,315.114567 660.5625,318.34375 C654.104134,321.572933 647.437534,323.1875 640.5625,323.1875 C630.145781,323.1875 621.447952,319.750034 614.46875,312.875 C607.489548,305.999966 604,296.208397 604,283.5 L604,204.125 Z M774.625,184.125 C788.583403,184.125 798.583303,189.12495 804.625,199.125 C810.666697,209.12505 813.6875,224.541563 813.6875,245.375 L813.6875,279.125 C813.6875,291.000059 814.520825,300.166634 816.1875,306.625 C816.604169,308.083341 819.312475,309.489577 824.3125,310.84375 C829.312525,312.197923 832.854156,312.875 834.9375,312.875 C835.562503,312.875 835.979166,314.124987 836.1875,316.625 C836.395834,319.125013 836.291669,320.895828 835.875,321.9375 C815.041563,320.895828 803.895841,320.375 802.4375,320.375 C801.812497,320.375 790.875106,320.895828 769.625,321.9375 C768.791663,321.104163 768.375,319.38543 768.375,316.78125 C768.375,314.17707 768.791663,312.875 769.625,312.875 C772.125013,312.875 775.614561,312.197923 780.09375,310.84375 C784.572939,309.489577 787.020831,308.083341 787.4375,306.625 C788.895841,300.583303 789.625,293.291709 789.625,284.75 L789.625,251.625 C789.625,232.458237 786.968777,219.593783 781.65625,213.03125 C776.343723,206.468717 768.166722,203.1875 757.125,203.1875 C750.874969,203.1875 744.677114,205.635392 738.53125,210.53125 C732.385386,215.427108 729.3125,219.749981 729.3125,223.5 L729.3125,278.8125 C729.3125,290.895894 730.145825,300.166634 731.8125,306.625 C732.229169,308.083341 734.937475,309.489577 739.9375,310.84375 C744.937525,312.197923 748.479156,312.875 750.5625,312.875 C751.187503,312.875 751.604166,314.124987 751.8125,316.625 C752.020834,319.125013 751.916669,320.895828 751.5,321.9375 C730.666563,320.895828 719.520841,320.375 718.0625,320.375 C716.812494,320.375 705.458441,320.895828 684,321.9375 C683.166663,321.104163 682.75,319.38543 682.75,316.78125 C682.75,314.17707 683.166663,312.875 684,312.875 C686.500013,312.875 690.197892,312.197923 695.09375,310.84375 C699.989608,309.489577 702.645831,308.083341 703.0625,306.625 C704.520841,300.583303 705.25,293.395875 705.25,285.0625 L705.25,149.4375 C705.25,142.354131 704.625006,135.687531 703.375,129.4375 C702.333328,126.10415 697.020881,124.4375 687.4375,124.4375 L684.625,124.4375 C683.374994,124.4375 682.75,123.291678 682.75,121 C682.75,117.66665 683.374994,116 684.625,116 C690.875031,115.374997 696.656223,114.541672 701.96875,113.5 C707.281277,112.458328 711.447902,111.416672 714.46875,110.375 C717.489598,109.333328 720.041656,108.343755 722.125,107.40625 C724.208344,106.468745 725.666663,105.687503 726.5,105.0625 L728.0625,104.125 L728.6875,104.125 C729.520837,104.125 730.354163,104.697911 731.1875,105.84375 C732.020837,106.989589 732.541666,108.083328 732.75,109.125 C730.458322,115.7917 729.3125,124.854109 729.3125,136.3125 L729.3125,204.75 C729.3125,205.583337 729.520831,206 729.9375,206 C730.145834,206 730.458331,205.791669 730.875,205.375 C735.458356,200.374975 741.968708,195.583356 750.40625,191 C758.843792,186.416644 766.916628,184.125 774.625,184.125 L774.625,184.125 Z M913.0625,196.3125 C902.229112,196.3125 893.947945,200.94787 888.21875,210.21875 C882.489555,219.48963 879.625,227.145803 879.625,233.1875 C879.625,234.645841 880.249994,235.375 881.5,235.375 L942.4375,235.375 C943.479172,235.375 944,234.333344 944,232.25 C944,225.5833 941.187528,217.927127 935.5625,209.28125 C929.937472,200.635373 922.437547,196.3125 913.0625,196.3125 L913.0625,196.3125 Z M916.1875,184.75 C925.770881,184.75 934.208297,186.572898 941.5,190.21875 C948.791703,193.864602 954.364564,198.552055 958.21875,204.28125 C962.072936,210.010445 964.885408,215.84372 966.65625,221.78125 C968.427092,227.71878 969.3125,233.604137 969.3125,239.4375 C969.3125,243.604188 968.687506,246.156245 967.4375,247.09375 C966.187494,248.031255 963.791684,248.5 960.25,248.5 L881.5,248.5 C879.833325,248.5 879,249.020828 879,250.0625 C879,263.187566 882.958294,275.270778 890.875,286.3125 C898.791706,297.354222 910.249925,302.875 925.25,302.875 C929.625022,302.875 933.791647,302.458337 937.75,301.625 C941.708353,300.791663 945.093736,299.802089 947.90625,298.65625 C950.718764,297.510411 953.114573,296.364589 955.09375,295.21875 C957.072927,294.072911 958.791659,292.979172 960.25,291.9375 L962.4375,290.375 C963.687506,290.375 964.3125,291.729153 964.3125,294.4375 C964.3125,296.104175 963.687506,297.979156 962.4375,300.0625 C958.270813,305.895863 952.125041,311.156227 944,315.84375 C935.874959,320.531273 927.020881,322.875 917.4375,322.875 C900.145747,322.875 885.302145,316.364648 872.90625,303.34375 C860.510355,290.322852 854.3125,274.437594 854.3125,255.6875 C854.3125,233.812391 860.197858,216.520897 871.96875,203.8125 C883.739642,191.104103 898.479078,184.75 916.1875,184.75 L916.1875,184.75 Z M1058.6875,189.125 C1058.6875,187.041656 1059.10416,185.375006 1059.9375,184.125 C1082.85428,185.375006 1095.14583,186 1096.8125,186 C1098.47917,186 1110.97905,185.375006 1134.3125,184.125 C1134.72917,184.958337 1134.9375,186.416656 1134.9375,188.5 C1134.9375,192.250019 1134.52084,194.125 1133.6875,194.125 C1130.77082,194.125 1127.85418,194.697911 1124.9375,195.84375 C1122.02082,196.989589 1120.5625,198.604156 1120.5625,200.6875 C1120.5625,201.729172 1121.08333,202.979159 1122.125,204.4375 L1141.8125,232.25 C1143.27084,230.166656 1146.08331,226.312528 1150.25,220.6875 C1154.41669,215.062472 1157.48957,210.687516 1159.46875,207.5625 C1161.44793,204.437484 1162.4375,202.041675 1162.4375,200.375 C1162.4375,198.916659 1161.55209,197.718755 1159.78125,196.78125 C1158.01041,195.843745 1156.13543,195.270834 1154.15625,195.0625 C1152.17707,194.854166 1150.09376,194.697917 1147.90625,194.59375 C1145.71874,194.489583 1144.52083,194.333334 1144.3125,194.125 C1143.47916,194.125 1143.0625,192.45835 1143.0625,189.125 C1143.0625,186.624987 1143.47916,184.958337 1144.3125,184.125 C1167.02095,185.375006 1179.10416,186 1180.5625,186 C1182.02084,186 1192.85407,185.375006 1213.0625,184.125 C1213.47917,185.583341 1213.6875,187.249991 1213.6875,189.125 C1213.6875,192.45835 1213.47917,194.125 1213.0625,194.125 C1198.89576,195.791675 1189.72919,199.124975 1185.5625,204.125 L1152.4375,242.875 C1152.02083,243.708337 1151.8125,244.541663 1151.8125,245.375 C1151.8125,246.625006 1152.22916,247.666663 1153.0625,248.5 L1188.375,296.9375 C1194.62503,305.687544 1203.27078,310.791659 1214.3125,312.25 C1214.9375,312.25 1215.25,314.020816 1215.25,317.5625 C1215.25,319.437509 1214.83334,320.999994 1214,322.25 C1210.87498,322.041666 1207.07294,321.729169 1202.59375,321.3125 C1198.11456,320.895831 1194.0521,320.583334 1190.40625,320.375 C1186.7604,320.166666 1182.85419,320.0625 1178.6875,320.0625 C1174.10414,320.0625 1169.83335,320.166666 1165.875,320.375 C1161.91665,320.583334 1157.48961,320.895831 1152.59375,321.3125 C1147.69789,321.729169 1143.47918,322.041666 1139.9375,322.25 C1139.52083,320.166656 1139.3125,318.812503 1139.3125,318.1875 C1139.3125,313.812478 1139.625,311.625 1140.25,311.625 C1143.16668,311.625 1146.18748,310.895841 1149.3125,309.4375 C1152.43752,307.979159 1154,306.208344 1154,304.125 C1154,303.708331 1153.79167,303.083337 1153.375,302.25 L1130.875,271 L1111.1875,298.5 C1109.72916,300.375009 1109,302.249991 1109,304.125 C1109,305.375006 1109.36458,306.416663 1110.09375,307.25 C1110.82292,308.083337 1112.02083,308.760414 1113.6875,309.28125 C1115.35417,309.802086 1116.76041,310.166666 1117.90625,310.375 C1119.05209,310.583334 1120.8229,310.843748 1123.21875,311.15625 C1125.6146,311.468752 1127.02083,311.625 1127.4375,311.625 C1128.0625,311.625 1128.375,313.395816 1128.375,316.9375 C1128.375,319.645847 1127.95834,321.416663 1127.125,322.25 C1123.99998,322.041666 1120.3021,321.729169 1116.03125,321.3125 C1111.7604,320.895831 1107.85418,320.583334 1104.3125,320.375 C1100.77082,320.166666 1097.02085,320.0625 1093.0625,320.0625 C1089.10415,320.0625 1085.35418,320.166666 1081.8125,320.375 C1078.27082,320.583334 1074.31252,320.895831 1069.9375,321.3125 C1065.56248,321.729169 1061.81252,322.041666 1058.6875,322.25 C1058.27083,320.583325 1058.0625,318.812509 1058.0625,316.9375 C1058.0625,313.395816 1058.47916,311.625 1059.3125,311.625 C1072.85423,309.541656 1081.91664,305.583363 1086.5,299.75 L1119.9375,259.125 C1120.35417,258.291663 1120.5625,257.458337 1120.5625,256.625 C1120.5625,255.999997 1120.25,255.270837 1119.625,254.4375 L1083.6875,205.6875 C1081.39582,202.562484 1077.75003,199.906261 1072.75,197.71875 C1067.74998,195.531239 1063.47918,194.4375 1059.9375,194.4375 C1059.10416,194.4375 1058.6875,192.666684 1058.6875,189.125 L1058.6875,189.125 Z M1257.125,145.84375 C1253.37498,141.989564 1251.5,137.406277 1251.5,132.09375 C1251.5,126.781223 1253.37498,122.250019 1257.125,118.5 C1260.87502,114.749981 1265.45831,112.875 1270.875,112.875 C1276.29169,112.875 1280.87498,114.749981 1284.625,118.5 C1288.37502,122.250019 1290.25,126.781223 1290.25,132.09375 C1290.25,137.406277 1288.37502,141.989564 1284.625,145.84375 C1280.87498,149.697936 1276.29169,151.625 1270.875,151.625 C1265.45831,151.625 1260.87502,149.697936 1257.125,145.84375 L1257.125,145.84375 Z M1289.625,276.625 C1289.625,289.333397 1290.45833,298.708303 1292.125,304.75 C1292.54167,306.208341 1295.35414,307.718742 1300.5625,309.28125 C1305.77086,310.843758 1309.31249,311.625 1311.1875,311.625 C1312.02084,311.625 1312.48958,313.135402 1312.59375,316.15625 C1312.69792,319.177098 1312.54167,321.208328 1312.125,322.25 C1310.66666,322.041666 1305.0938,321.625003 1295.40625,321 C1285.7187,320.374997 1278.58336,320.0625 1274,320.0625 C1268.79164,320.0625 1261.44796,320.374997 1251.96875,321 C1242.48954,321.625003 1237.02084,322.041666 1235.5625,322.25 C1234.72916,321.416663 1234.3125,319.437516 1234.3125,316.3125 C1234.3125,313.187484 1234.72916,311.625 1235.5625,311.625 C1237.85418,311.625 1241.60414,310.843758 1246.8125,309.28125 C1252.02086,307.718742 1254.83333,306.208341 1255.25,304.75 C1256.70834,298.499969 1257.4375,290.895878 1257.4375,281.9375 L1257.4375,231 C1257.4375,221.208284 1255.77085,214.541684 1252.4375,211 C1250.56249,208.916656 1248.16668,207.354172 1245.25,206.3125 C1242.33332,205.270828 1239.83334,204.645834 1237.75,204.4375 C1235.66666,204.229166 1234.625,203.916669 1234.625,203.5 C1234.625,197.458303 1235.24999,194.333334 1236.5,194.125 C1242.33336,193.708331 1250.77078,192.458344 1261.8125,190.375 C1272.85422,188.291656 1281.08331,186.416675 1286.5,184.75 C1286.70833,184.75 1287.17708,184.645834 1287.90625,184.4375 C1288.63542,184.229166 1289,184.125 1289,184.125 C1290.04167,184.125 1290.875,184.854159 1291.5,186.3125 C1292.125,187.770841 1292.33333,188.916663 1292.125,189.75 C1290.45833,203.0834 1289.625,212.041644 1289.625,216.625 L1289.625,276.625 Z M1413.0625,183.1875 C1426.3959,183.1875 1438.27078,186.624966 1448.6875,193.5 C1459.10422,200.375034 1466.81247,208.708284 1471.8125,218.5 C1476.81253,228.291716 1479.3125,238.499947 1479.3125,249.125 C1479.3125,270.583441 1472.07299,288.34368 1457.59375,302.40625 C1443.11451,316.46882 1425.8751,323.5 1405.875,323.5 C1399.8333,323.5 1392.43754,322.041681 1383.6875,319.125 C1382.85416,319.125 1382.4375,320.583319 1382.4375,323.5 L1382.4375,344.75 C1382.4375,357.666731 1383.27083,367.041637 1384.9375,372.875 C1385.14583,374.541675 1387.90622,376.156242 1393.21875,377.71875 C1398.53128,379.281258 1402.12499,380.0625 1404,380.0625 C1404.625,380.0625 1404.98958,381.572902 1405.09375,384.59375 C1405.19792,387.614598 1405.14583,389.541663 1404.9375,390.375 C1403.47916,390.375 1397.9063,390.062503 1388.21875,389.4375 C1378.5312,388.812497 1371.39586,388.5 1366.8125,388.5 C1361.60414,388.5 1354.26046,388.812497 1344.78125,389.4375 C1335.30204,390.062503 1329.72917,390.375 1328.0625,390.375 C1327.4375,389.541663 1327.125,387.614598 1327.125,384.59375 C1327.125,381.572902 1327.4375,380.0625 1328.0625,380.0625 C1330.56251,380.0625 1334.36456,379.281258 1339.46875,377.71875 C1344.57294,376.156242 1347.4375,374.541675 1348.0625,372.875 C1349.31251,366.833303 1349.9375,359.333378 1349.9375,350.375 L1349.9375,231 C1349.9375,220.99995 1348.27085,214.229184 1344.9375,210.6875 C1343.27083,208.604156 1340.97918,207.093755 1338.0625,206.15625 C1335.14582,205.218745 1332.64584,204.645834 1330.5625,204.4375 C1328.47916,204.229166 1327.4375,203.916669 1327.4375,203.5 C1327.4375,197.458303 1328.06249,194.333334 1329.3125,194.125 C1346.60425,192.458325 1362.12493,189.541688 1375.875,185.375 C1375.875,185.375 1376.81249,185.114586 1378.6875,184.59375 C1380.56251,184.072914 1381.60417,183.8125 1381.8125,183.8125 C1382.64584,183.8125 1383.0625,185.999978 1383.0625,190.375 C1383.0625,191.208337 1382.85417,192.458325 1382.4375,194.125 C1385.77085,191.624988 1390.40622,189.177095 1396.34375,186.78125 C1402.28128,184.385405 1407.85414,183.1875 1413.0625,183.1875 L1413.0625,183.1875 Z M1405.5625,199.75 C1398.68747,199.75 1393.1146,201.729147 1388.84375,205.6875 C1384.5729,209.645853 1382.4375,214.9583 1382.4375,221.625 L1382.4375,286 C1382.4375,292.875034 1385.24997,298.34373 1390.875,302.40625 C1396.50003,306.46877 1402.54163,308.5 1409,308.5 C1418.58338,308.5 1426.65622,304.125044 1433.21875,295.375 C1439.78128,286.624956 1443.0625,274.333413 1443.0625,258.5 C1443.0625,241.624916 1439.7292,227.614639 1433.0625,216.46875 C1426.3958,205.322861 1417.22923,199.75 1405.5625,199.75 L1405.5625,199.75 Z M1598.6875,182.875 C1625.3543,182.875 1638.6875,203.395628 1638.6875,244.4375 L1638.6875,276.625 C1638.6875,289.333397 1639.52083,298.708303 1641.1875,304.75 C1641.39583,306.208341 1644.15622,307.718742 1649.46875,309.28125 C1654.78128,310.843758 1658.37499,311.625 1660.25,311.625 C1660.875,311.625 1661.23958,313.135402 1661.34375,316.15625 C1661.44792,319.177098 1661.39583,321.208328 1661.1875,322.25 C1659.72916,322.041666 1654.1563,321.625003 1644.46875,321 C1634.7812,320.374997 1627.64586,320.0625 1623.0625,320.0625 C1617.85414,320.0625 1610.82296,320.374997 1601.96875,321 C1593.11454,321.625003 1587.64584,322.041666 1585.5625,322.25 C1584.9375,321.416663 1584.625,319.437516 1584.625,316.3125 C1584.625,313.187484 1584.9375,311.625 1585.5625,311.625 C1588.06251,311.625 1591.65623,310.843758 1596.34375,309.28125 C1601.03127,307.718742 1603.6875,306.208341 1604.3125,304.75 C1605.56251,298.499969 1606.1875,290.895878 1606.1875,281.9375 L1606.1875,251.3125 C1606.1875,234.020747 1603.84377,222.093783 1599.15625,215.53125 C1594.46873,208.968717 1587.02088,205.6875 1576.8125,205.6875 C1570.56247,205.6875 1564.83336,207.458316 1559.625,211 C1554.41664,214.541684 1551.8125,218.499978 1551.8125,222.875 L1551.8125,276.625 C1551.8125,289.333397 1552.64583,298.708303 1554.3125,304.75 C1554.72917,306.208341 1557.48956,307.718742 1562.59375,309.28125 C1567.69794,310.843758 1571.18749,311.625 1573.0625,311.625 C1573.6875,311.625 1574.05208,313.135402 1574.15625,316.15625 C1574.26042,319.177098 1574.10417,321.208328 1573.6875,322.25 C1572.02083,322.041666 1566.55213,321.625003 1557.28125,321 C1548.01037,320.374997 1540.97919,320.0625 1536.1875,320.0625 C1531.18747,320.0625 1523.94796,320.374997 1514.46875,321 C1504.98954,321.625003 1499.41667,322.041666 1497.75,322.25 C1496.91666,321.416663 1496.5,319.437516 1496.5,316.3125 C1496.5,313.187484 1496.91666,311.625 1497.75,311.625 C1500.25001,311.625 1504.05206,310.843758 1509.15625,309.28125 C1514.26044,307.718742 1517.02083,306.208341 1517.4375,304.75 C1518.89584,298.499969 1519.625,291.000044 1519.625,282.25 L1519.625,152.25 C1519.625,143.916625 1519.10417,136.833363 1518.0625,131 C1517.02083,127.66665 1511.60422,126 1501.8125,126 L1499,126 C1497.74999,126 1497.125,124.33335 1497.125,121 C1497.125,117.66665 1497.74999,116 1499,116 C1505.45837,115.374997 1511.60414,114.541672 1517.4375,113.5 C1523.27086,112.458328 1528.11456,111.416672 1531.96875,110.375 C1535.82294,109.333328 1539.15624,108.291672 1541.96875,107.25 C1544.78126,106.208328 1546.96874,105.427086 1548.53125,104.90625 C1550.09376,104.385414 1550.875,104.125 1550.875,104.125 L1551.5,104.125 C1552.33334,104.125 1553.16666,104.697911 1554,105.84375 C1554.83334,106.989589 1555.35417,108.083328 1555.5625,109.125 C1553.06249,117.250041 1551.8125,127.041609 1551.8125,138.5 L1551.8125,201.625 C1551.8125,202.875006 1552.22916,203.5 1553.0625,203.5 C1553.27083,203.5 1553.6875,203.187503 1554.3125,202.5625 C1558.68752,197.562475 1565.09371,193.03127 1573.53125,188.96875 C1581.96879,184.90623 1590.35412,182.875 1598.6875,182.875 L1598.6875,182.875 Z M1816.1875,196.625 C1805.14578,196.625 1796.13545,201.677033 1789.15625,211.78125 C1782.17705,221.885467 1778.6875,234.229094 1778.6875,248.8125 C1778.6875,265.895919 1783.11454,280.531189 1791.96875,292.71875 C1800.82296,304.906311 1811.18744,311 1823.0625,311 C1834.10422,311 1843.16663,305.791719 1850.25,295.375 C1857.33337,284.958281 1860.875,272.458406 1860.875,257.875 C1860.875,240.999916 1856.39588,226.572977 1847.4375,214.59375 C1838.47912,202.614523 1828.06256,196.625 1816.1875,196.625 L1816.1875,196.625 Z M1819.625,184.4375 C1838.37509,184.4375 1854.4166,191.208266 1867.75,204.75 C1881.0834,218.291734 1887.75,234.541572 1887.75,253.5 C1887.75,272.666763 1881.23965,289.072848 1868.21875,302.71875 C1855.19785,316.364652 1839.20843,323.1875 1820.25,323.1875 C1801.29157,323.1875 1785.1459,316.364652 1771.8125,302.71875 C1758.4791,289.072848 1751.8125,272.666763 1751.8125,253.5 C1751.8125,234.124903 1758.27077,217.7709 1771.1875,204.4375 C1784.10423,191.1041 1800.2499,184.4375 1819.625,184.4375 L1819.625,184.4375 Z M1983.6875,184.75 C2003.6876,184.75 2019.31244,191.468683 2030.5625,204.90625 C2041.81256,218.343817 2047.4375,232.666591 2047.4375,247.875 C2047.4375,267.8751 2040.4584,285.479091 2026.5,300.6875 C2012.5416,315.895909 1996.70842,323.5 1979,323.5 C1975.87498,323.5 1973.1146,323.395834 1970.71875,323.1875 C1968.3229,322.979166 1966.18751,322.614586 1964.3125,322.09375 C1962.43749,321.572914 1960.97917,321.104169 1959.9375,320.6875 C1958.89583,320.270831 1957.54167,319.69792 1955.875,318.96875 C1954.20833,318.23958 1953.16667,317.770834 1952.75,317.5625 C1951.91666,318.604172 1951.5,319.958325 1951.5,321.625 L1951.5,348.5 C1951.5,360.583394 1952.33333,369.854134 1954,376.3125 C1954.41667,377.770841 1957.12497,379.177077 1962.125,380.53125 C1967.12503,381.885423 1970.66666,382.5625 1972.75,382.5625 C1973.375,382.5625 1973.79167,383.86457 1974,386.46875 C1974.20833,389.07293 1974.10417,390.791663 1973.6875,391.625 C1952.85406,390.583328 1941.70834,390.0625 1940.25,390.0625 C1938.99999,390.0625 1927.64594,390.583328 1906.1875,391.625 C1905.35416,390.791663 1904.9375,389.07293 1904.9375,386.46875 C1904.9375,383.86457 1905.35416,382.5625 1906.1875,382.5625 C1908.68751,382.5625 1912.38539,381.885423 1917.28125,380.53125 C1922.17711,379.177077 1924.83333,377.770841 1925.25,376.3125 C1926.70834,370.270803 1927.4375,362.979209 1927.4375,354.4375 L1927.4375,225.375 C1927.4375,217.249959 1925.97918,211.625016 1923.0625,208.5 C1920.97916,205.999988 1918.4271,204.281255 1915.40625,203.34375 C1912.3854,202.406245 1909.88543,201.9375 1907.90625,201.9375 C1905.92707,201.9375 1904.9375,201.729169 1904.9375,201.3125 C1904.9375,196.312475 1905.56249,193.708334 1906.8125,193.5 C1928.89594,190.16665 1943.2708,187.458344 1949.9375,185.375 C1950.14583,185.375 1950.45833,185.322917 1950.875,185.21875 C1951.29167,185.114583 1951.5,185.0625 1951.5,185.0625 C1952.125,185.0625 1952.4375,185.635411 1952.4375,186.78125 C1952.4375,187.927089 1952.33333,189.333325 1952.125,191 C1951.91667,192.666675 1951.8125,193.604166 1951.8125,193.8125 L1951.8125,195.6875 C1954.72918,193.604156 1959.57288,191.26043 1966.34375,188.65625 C1973.11462,186.05207 1978.89581,184.75 1983.6875,184.75 L1983.6875,184.75 Z M1973.6875,200.0625 C1967.22913,200.0625 1961.91669,201.781233 1957.75,205.21875 C1953.58331,208.656267 1951.5,213.604134 1951.5,220.0625 L1951.5,290.375 C1951.5,296.000028 1954.5208,300.739564 1960.5625,304.59375 C1966.6042,308.447936 1973.16663,310.375 1980.25,310.375 C1992.54173,310.375 2002.3333,304.854222 2009.625,293.8125 C2016.9167,282.770778 2020.5625,270.375069 2020.5625,256.625 C2020.5625,239.124912 2015.92713,225.322967 2006.65625,215.21875 C1997.38537,205.114533 1986.3959,200.0625 1973.6875,200.0625 L1973.6875,200.0625 Z M2129.625,196.3125 C2118.79161,196.3125 2110.51045,200.94787 2104.78125,210.21875 C2099.05205,219.48963 2096.1875,227.145803 2096.1875,233.1875 C2096.1875,234.645841 2096.81249,235.375 2098.0625,235.375 L2159,235.375 C2160.04167,235.375 2160.5625,234.333344 2160.5625,232.25 C2160.5625,225.5833 2157.75003,217.927127 2152.125,209.28125 C2146.49997,200.635373 2139.00005,196.3125 2129.625,196.3125 L2129.625,196.3125 Z M2132.75,184.75 C2142.33338,184.75 2150.7708,186.572898 2158.0625,190.21875 C2165.3542,193.864602 2170.92706,198.552055 2174.78125,204.28125 C2178.63544,210.010445 2181.44791,215.84372 2183.21875,221.78125 C2184.98959,227.71878 2185.875,233.604137 2185.875,239.4375 C2185.875,243.604188 2185.25001,246.156245 2184,247.09375 C2182.74999,248.031255 2180.35418,248.5 2176.8125,248.5 L2098.0625,248.5 C2096.39583,248.5 2095.5625,249.020828 2095.5625,250.0625 C2095.5625,263.187566 2099.52079,275.270778 2107.4375,286.3125 C2115.35421,297.354222 2126.81243,302.875 2141.8125,302.875 C2146.18752,302.875 2150.35415,302.458337 2154.3125,301.625 C2158.27085,300.791663 2161.65624,299.802089 2164.46875,298.65625 C2167.28126,297.510411 2169.67707,296.364589 2171.65625,295.21875 C2173.63543,294.072911 2175.35416,292.979172 2176.8125,291.9375 L2179,290.375 C2180.25001,290.375 2180.875,291.729153 2180.875,294.4375 C2180.875,296.104175 2180.25001,297.979156 2179,300.0625 C2174.83331,305.895863 2168.68754,311.156227 2160.5625,315.84375 C2152.43746,320.531273 2143.58338,322.875 2134,322.875 C2116.70825,322.875 2101.86465,316.364648 2089.46875,303.34375 C2077.07285,290.322852 2070.875,274.437594 2070.875,255.6875 C2070.875,233.812391 2076.76036,216.520897 2088.53125,203.8125 C2100.30214,191.104103 2115.04158,184.75 2132.75,184.75 L2132.75,184.75 Z M2294.3125,184.125 C2308.89591,184.125 2319.10414,189.333281 2324.9375,199.75 C2330.77086,210.166719 2333.6875,227.04155 2333.6875,250.375 L2333.6875,278.8125 C2333.6875,290.895894 2334.52083,300.166634 2336.1875,306.625 C2336.60417,308.083341 2339.31248,309.489577 2344.3125,310.84375 C2349.31252,312.197923 2352.85416,312.875 2354.9375,312.875 C2355.5625,312.875 2355.97917,314.124987 2356.1875,316.625 C2356.39583,319.125013 2356.29167,320.895828 2355.875,321.9375 C2335.04156,320.895828 2323.89584,320.375 2322.4375,320.375 C2322.02083,320.375 2311.08344,320.895828 2289.625,321.9375 C2288.79166,321.104163 2288.375,319.38543 2288.375,316.78125 C2288.375,314.17707 2288.79166,312.875 2289.625,312.875 C2292.12501,312.875 2295.61456,312.197923 2300.09375,310.84375 C2304.57294,309.489577 2307.02083,308.083341 2307.4375,306.625 C2308.89584,300.583303 2309.625,293.291709 2309.625,284.75 L2309.625,253.5 C2309.625,234.124903 2307.12503,220.895869 2302.125,213.8125 C2297.12497,206.729131 2289.00006,203.1875 2277.75,203.1875 C2271.0833,203.1875 2264.67711,205.635392 2258.53125,210.53125 C2252.38539,215.427108 2249.3125,219.854147 2249.3125,223.8125 L2249.3125,278.8125 C2249.3125,290.895894 2250.14583,300.166634 2251.8125,306.625 C2252.22917,308.083341 2254.93748,309.489577 2259.9375,310.84375 C2264.93752,312.197923 2268.47916,312.875 2270.5625,312.875 C2271.1875,312.875 2271.60417,314.124987 2271.8125,316.625 C2272.02083,319.125013 2271.91667,320.895828 2271.5,321.9375 C2250.66656,320.895828 2239.52084,320.375 2238.0625,320.375 C2236.81249,320.375 2225.45844,320.895828 2204,321.9375 C2203.16666,321.104163 2202.75,319.38543 2202.75,316.78125 C2202.75,314.17707 2203.16666,312.875 2204,312.875 C2206.50001,312.875 2210.19789,312.197923 2215.09375,310.84375 C2219.98961,309.489577 2222.64583,308.083341 2223.0625,306.625 C2224.52084,300.583303 2225.25,293.291709 2225.25,284.75 L2225.25,225.6875 C2225.25,217.562459 2223.79168,211.937516 2220.875,208.8125 C2218.79166,206.312487 2216.2396,204.593755 2213.21875,203.65625 C2210.1979,202.718745 2207.69793,202.25 2205.71875,202.25 C2203.73957,202.25 2202.75,202.041669 2202.75,201.625 C2202.75,196.624975 2203.37499,194.020834 2204.625,193.8125 C2226.70844,190.47915 2241.0833,187.770844 2247.75,185.6875 C2247.95833,185.6875 2248.27083,185.635417 2248.6875,185.53125 C2249.10417,185.427083 2249.3125,185.375 2249.3125,185.375 C2250.14584,185.375 2250.66667,186.260408 2250.875,188.03125 C2251.08333,189.802092 2251.08333,191.104163 2250.875,191.9375 C2250.04166,197.770863 2249.625,201.937488 2249.625,204.4375 C2249.625,205.270837 2249.83333,205.6875 2250.25,205.6875 C2250.45833,205.6875 2250.77083,205.479169 2251.1875,205.0625 C2255.97919,200.062475 2262.48954,195.322939 2270.71875,190.84375 C2278.94796,186.364561 2286.81246,184.125 2294.3125,184.125 L2294.3125,184.125 Z M2494.625,184.4375 C2499.20836,184.4375 2504.98955,185.010411 2511.96875,186.15625 C2518.94795,187.302089 2523.79165,188.083331 2526.5,188.5 C2528.58334,198.083381 2529.83333,208.708275 2530.25,220.375 C2530.25,221.416672 2528.89585,221.9375 2526.1875,221.9375 C2523.27082,221.9375 2521.70833,221.208341 2521.5,219.75 C2520.45833,213.916637 2517.48961,208.395859 2512.59375,203.1875 C2507.69789,197.979141 2502.12503,195.375 2495.875,195.375 C2480.87493,195.375 2473.375,201.520772 2473.375,213.8125 C2473.375,216.937516 2473.79166,219.697905 2474.625,222.09375 C2475.45834,224.489595 2477.0729,226.781239 2479.46875,228.96875 C2481.8646,231.156261 2483.68749,232.718745 2484.9375,233.65625 C2486.18751,234.593755 2488.9479,236.260405 2493.21875,238.65625 C2497.4896,241.052095 2500.14583,242.562497 2501.1875,243.1875 C2502.02084,243.604169 2504.46873,245.010405 2508.53125,247.40625 C2512.59377,249.802095 2515.45833,251.520828 2517.125,252.5625 C2518.79167,253.604172 2521.23957,255.374987 2524.46875,257.875 C2527.69793,260.375013 2530.04166,262.614573 2531.5,264.59375 C2532.95834,266.572927 2534.36458,269.072902 2535.71875,272.09375 C2537.07292,275.114598 2537.75,278.187484 2537.75,281.3125 C2537.75,293.604228 2532.95838,303.864542 2523.375,312.09375 C2513.79162,320.322958 2502.54173,324.4375 2489.625,324.4375 C2485.24998,324.4375 2481.2396,324.177086 2477.59375,323.65625 C2473.9479,323.135414 2469.62503,322.250006 2464.625,321 C2459.62497,319.749994 2455.77085,318.916669 2453.0625,318.5 C2451.81249,315.16665 2450.61459,309.958369 2449.46875,302.875 C2448.32291,295.791631 2447.75,290.166688 2447.75,286 C2449.41667,284.749994 2450.66666,284.125 2451.5,284.125 C2454.62502,284.125 2456.29167,284.749994 2456.5,286 C2457.75001,292.250031 2461.65622,298.34372 2468.21875,304.28125 C2474.78128,310.21878 2481.91663,313.1875 2489.625,313.1875 C2496.2917,313.1875 2501.7604,311.364602 2506.03125,307.71875 C2510.3021,304.072898 2512.4375,298.812534 2512.4375,291.9375 C2512.4375,288.395816 2511.76042,285.114598 2510.40625,282.09375 C2509.05208,279.072902 2506.8646,276.364595 2503.84375,273.96875 C2500.8229,271.572905 2498.01043,269.593758 2495.40625,268.03125 C2492.80207,266.468742 2489.10419,264.437513 2484.3125,261.9375 C2479.52081,259.437487 2475.97918,257.458341 2473.6875,256 C2457.43742,246.624953 2449.3125,235.479231 2449.3125,222.5625 C2449.3125,211.312444 2453.8437,202.145869 2462.90625,195.0625 C2471.9688,187.979131 2482.54161,184.4375 2494.625,184.4375 L2494.625,184.4375 Z M2623.0625,196.625 C2612.02078,196.625 2603.01045,201.677033 2596.03125,211.78125 C2589.05205,221.885467 2585.5625,234.229094 2585.5625,248.8125 C2585.5625,265.895919 2589.98954,280.531189 2598.84375,292.71875 C2607.69796,304.906311 2618.06244,311 2629.9375,311 C2640.97922,311 2650.04163,305.791719 2657.125,295.375 C2664.20837,284.958281 2667.75,272.458406 2667.75,257.875 C2667.75,240.999916 2663.27088,226.572977 2654.3125,214.59375 C2645.35412,202.614523 2634.93756,196.625 2623.0625,196.625 L2623.0625,196.625 Z M2626.5,184.4375 C2645.25009,184.4375 2661.2916,191.208266 2674.625,204.75 C2687.9584,218.291734 2694.625,234.541572 2694.625,253.5 C2694.625,272.666763 2688.11465,289.072848 2675.09375,302.71875 C2662.07285,316.364652 2646.08343,323.1875 2627.125,323.1875 C2608.16657,323.1875 2592.0209,316.364652 2578.6875,302.71875 C2565.3541,289.072848 2558.6875,272.666763 2558.6875,253.5 C2558.6875,234.124903 2565.14577,217.7709 2578.0625,204.4375 C2590.97923,191.1041 2607.1249,184.4375 2626.5,184.4375 L2626.5,184.4375 Z M2842.4375,214.4375 L2842.4375,276.9375 C2842.4375,285.895878 2843.16666,293.812466 2844.625,300.6875 C2845.04167,302.145841 2846.18749,303.291663 2848.0625,304.125 C2849.93751,304.958337 2851.91666,305.479166 2854,305.6875 C2856.08334,305.895834 2858.16666,306 2860.25,306 L2863.0625,306.3125 C2863.6875,306.520834 2864,307.666656 2864,309.75 C2864,310.375003 2863.73959,311.364577 2863.21875,312.71875 C2862.69791,314.072923 2862.125,314.75 2861.5,314.75 C2858.37498,314.958334 2854.88544,315.374997 2851.03125,316 C2847.17706,316.625003 2843.58335,317.354163 2840.25,318.1875 C2836.91665,319.020837 2833.79168,319.854163 2830.875,320.6875 C2827.95832,321.520837 2825.66667,322.249997 2824,322.875 L2821.1875,323.5 C2819.52083,323.5 2818.6875,321.83335 2818.6875,318.5 L2818.6875,302.5625 L2818.0625,301 C2804.31243,315.791741 2790.66673,323.1875 2777.125,323.1875 C2769.41663,323.1875 2762.80211,321.260436 2757.28125,317.40625 C2751.76039,313.552064 2747.69793,308.447948 2745.09375,302.09375 C2742.48957,295.739552 2740.66667,289.59378 2739.625,283.65625 C2738.58333,277.71872 2738.0625,271.520866 2738.0625,265.0625 L2738.0625,225.6875 C2738.0625,217.562459 2736.60418,211.937516 2733.6875,208.8125 C2731.60416,206.312487 2729.0521,204.593755 2726.03125,203.65625 C2723.0104,202.718745 2720.51043,202.25 2718.53125,202.25 C2716.55207,202.25 2715.5625,202.041669 2715.5625,201.625 C2715.5625,196.624975 2716.18749,194.020834 2717.4375,193.8125 C2739.52094,190.47915 2753.8958,187.770844 2760.5625,185.6875 C2760.77083,185.6875 2761.08333,185.635417 2761.5,185.53125 C2761.91667,185.427083 2762.125,185.375 2762.125,185.375 C2762.95834,185.375 2763.47917,186.260408 2763.6875,188.03125 C2763.89583,189.802092 2763.89583,191.104163 2763.6875,191.9375 C2762.43749,201.93755 2761.8125,209.645806 2761.8125,215.0625 L2761.8125,257.25 C2761.8125,273.291747 2764.20831,285.114545 2769,292.71875 C2773.79169,300.322955 2781.60411,304.125 2792.4375,304.125 C2798.68753,304.125 2804.62497,301.677108 2810.25,296.78125 C2815.87503,291.885392 2818.6875,287.666684 2818.6875,284.125 L2818.6875,225.6875 C2818.6875,217.562459 2817.22918,211.937516 2814.3125,208.8125 C2812.22916,206.312487 2809.6771,204.593755 2806.65625,203.65625 C2803.6354,202.718745 2801.13543,202.25 2799.15625,202.25 C2797.17707,202.25 2796.1875,202.041669 2796.1875,201.625 C2796.1875,196.624975 2796.81249,194.020834 2798.0625,193.8125 C2820.14594,190.47915 2834.5208,187.770844 2841.1875,185.6875 C2841.39583,185.6875 2841.70833,185.635417 2842.125,185.53125 L2842.75,185.375 C2843.58334,185.375 2844.10417,186.260408 2844.3125,188.03125 C2844.52083,189.802092 2844.52083,191.104163 2844.3125,191.9375 C2843.06249,201.93755 2842.4375,209.437475 2842.4375,214.4375 L2842.4375,214.4375 Z M2959.625,184.4375 C2971.91673,184.4375 2980.04165,187.458303 2984,193.5 C2984,200.791703 2982.85418,206.10415 2980.5625,209.4375 C2978.27082,212.77085 2975.45835,214.4375 2972.125,214.4375 C2968.37498,214.4375 2964.93752,212.666684 2961.8125,209.125 C2958.68748,205.583316 2954.41669,203.8125 2949,203.8125 C2942.54163,203.8125 2936.91669,206.833303 2932.125,212.875 C2927.33331,218.916697 2924.9375,225.2708 2924.9375,231.9375 L2924.9375,278.8125 C2924.9375,290.895894 2925.77083,300.166634 2927.4375,306.625 C2927.85417,308.083341 2930.61456,309.489577 2935.71875,310.84375 C2940.82294,312.197923 2944.41666,312.875 2946.5,312.875 C2947.125,312.875 2947.54167,314.124987 2947.75,316.625 C2947.95833,319.125013 2947.85417,320.895828 2947.4375,321.9375 C2926.60406,320.895828 2915.35417,320.375 2913.6875,320.375 C2912.43749,320.375 2901.08344,320.895828 2879.625,321.9375 C2878.79166,321.104163 2878.375,319.38543 2878.375,316.78125 C2878.375,314.17707 2878.79166,312.875 2879.625,312.875 C2882.12501,312.875 2885.82289,312.197923 2890.71875,310.84375 C2895.61461,309.489577 2898.27083,308.083341 2898.6875,306.625 C2900.14584,300.583303 2900.875,293.291709 2900.875,284.75 L2900.875,225.6875 C2900.875,217.562459 2899.41668,211.937516 2896.5,208.8125 C2894.41666,206.312487 2891.8646,204.593755 2888.84375,203.65625 C2885.8229,202.718745 2883.32293,202.25 2881.34375,202.25 C2879.36457,202.25 2878.375,202.041669 2878.375,201.625 C2878.375,196.624975 2878.99999,194.020834 2880.25,193.8125 C2902.33344,190.47915 2916.7083,187.770844 2923.375,185.6875 C2923.58333,185.6875 2923.89583,185.635417 2924.3125,185.53125 C2924.72917,185.427083 2924.9375,185.375 2924.9375,185.375 C2925.77084,185.375 2926.29167,186.260408 2926.5,188.03125 C2926.70833,189.802092 2926.70833,191.104163 2926.5,191.9375 L2924.625,207.5625 C2928.37502,201.937472 2933.53122,196.677108 2940.09375,191.78125 C2946.65628,186.885392 2953.16663,184.4375 2959.625,184.4375 L2959.625,184.4375 Z M3059,184.75 C3081.91678,184.75 3097.74996,190.062447 3106.5,200.6875 C3106.5,214.645903 3102.64587,221.625 3094.9375,221.625 C3091.39582,221.625 3088.68751,220.843758 3086.8125,219.28125 C3084.93749,217.718742 3082.54168,214.854188 3079.625,210.6875 C3073.16663,201.104119 3065.45838,196.3125 3056.5,196.3125 C3047.95829,196.3125 3040.19795,200.374959 3033.21875,208.5 C3026.23955,216.625041 3022.75,228.708253 3022.75,244.75 C3022.75,261.41675 3026.86454,275.270778 3035.09375,286.3125 C3043.32296,297.354222 3054.72909,302.875 3069.3125,302.875 C3073.68752,302.875 3077.85415,302.458337 3081.8125,301.625 C3085.77085,300.791663 3089.15624,299.802089 3091.96875,298.65625 C3094.78126,297.510411 3097.17707,296.364589 3099.15625,295.21875 C3101.13543,294.072911 3102.85416,292.979172 3104.3125,291.9375 L3106.5,290.375 C3107.75001,290.375 3108.375,291.729153 3108.375,294.4375 C3108.375,296.104175 3107.75001,297.979156 3106.5,300.0625 C3102.33331,305.895863 3096.18754,311.156227 3088.0625,315.84375 C3079.93746,320.531273 3071.08338,322.875 3061.5,322.875 C3044.20825,322.875 3029.36465,316.364648 3016.96875,303.34375 C3004.57285,290.322852 2998.375,274.437594 2998.375,255.6875 C2998.375,236.520737 3003.58328,219.90632 3014,205.84375 C3024.41672,191.78118 3039.41657,184.75 3059,184.75 L3059,184.75 Z M3183.6875,196.3125 C3172.85411,196.3125 3164.57295,200.94787 3158.84375,210.21875 C3153.11455,219.48963 3150.25,227.145803 3150.25,233.1875 C3150.25,234.645841 3150.87499,235.375 3152.125,235.375 L3213.0625,235.375 C3214.10417,235.375 3214.625,234.333344 3214.625,232.25 C3214.625,225.5833 3211.81253,217.927127 3206.1875,209.28125 C3200.56247,200.635373 3193.06255,196.3125 3183.6875,196.3125 L3183.6875,196.3125 Z M3186.8125,184.75 C3196.39588,184.75 3204.8333,186.572898 3212.125,190.21875 C3219.4167,193.864602 3224.98956,198.552055 3228.84375,204.28125 C3232.69794,210.010445 3235.51041,215.84372 3237.28125,221.78125 C3239.05209,227.71878 3239.9375,233.604137 3239.9375,239.4375 C3239.9375,243.604188 3239.31251,246.156245 3238.0625,247.09375 C3236.81249,248.031255 3234.41668,248.5 3230.875,248.5 L3152.125,248.5 C3150.45833,248.5 3149.625,249.020828 3149.625,250.0625 C3149.625,263.187566 3153.58329,275.270778 3161.5,286.3125 C3169.41671,297.354222 3180.87493,302.875 3195.875,302.875 C3200.25002,302.875 3204.41665,302.458337 3208.375,301.625 C3212.33335,300.791663 3215.71874,299.802089 3218.53125,298.65625 C3221.34376,297.510411 3223.73957,296.364589 3225.71875,295.21875 C3227.69793,294.072911 3229.41666,292.979172 3230.875,291.9375 L3233.0625,290.375 C3234.31251,290.375 3234.9375,291.729153 3234.9375,294.4375 C3234.9375,296.104175 3234.31251,297.979156 3233.0625,300.0625 C3228.89581,305.895863 3222.75004,311.156227 3214.625,315.84375 C3206.49996,320.531273 3197.64588,322.875 3188.0625,322.875 C3170.77075,322.875 3155.92715,316.364648 3143.53125,303.34375 C3131.13535,290.322852 3124.9375,274.437594 3124.9375,255.6875 C3124.9375,233.812391 3130.82286,216.520897 3142.59375,203.8125 C3154.36464,191.104103 3169.10408,184.75 3186.8125,184.75 L3186.8125,184.75 Z M3391.5,184.75 C3414.41678,184.75 3430.24996,190.062447 3439,200.6875 C3439,214.645903 3435.14587,221.625 3427.4375,221.625 C3423.89582,221.625 3421.18751,220.843758 3419.3125,219.28125 C3417.43749,217.718742 3415.04168,214.854188 3412.125,210.6875 C3405.66663,201.104119 3397.95838,196.3125 3389,196.3125 C3380.45829,196.3125 3372.69795,200.374959 3365.71875,208.5 C3358.73955,216.625041 3355.25,228.708253 3355.25,244.75 C3355.25,261.41675 3359.36454,275.270778 3367.59375,286.3125 C3375.82296,297.354222 3387.22909,302.875 3401.8125,302.875 C3406.18752,302.875 3410.35415,302.458337 3414.3125,301.625 C3418.27085,300.791663 3421.65624,299.802089 3424.46875,298.65625 C3427.28126,297.510411 3429.67707,296.364589 3431.65625,295.21875 C3433.63543,294.072911 3435.35416,292.979172 3436.8125,291.9375 L3439,290.375 C3440.25001,290.375 3440.875,291.729153 3440.875,294.4375 C3440.875,296.104175 3440.25001,297.979156 3439,300.0625 C3434.83331,305.895863 3428.68754,311.156227 3420.5625,315.84375 C3412.43746,320.531273 3403.58338,322.875 3394,322.875 C3376.70825,322.875 3361.86465,316.364648 3349.46875,303.34375 C3337.07285,290.322852 3330.875,274.437594 3330.875,255.6875 C3330.875,236.520737 3336.08328,219.90632 3346.5,205.84375 C3356.91672,191.78118 3371.91657,184.75 3391.5,184.75 L3391.5,184.75 Z M3521.8125,196.625 C3510.77078,196.625 3501.76045,201.677033 3494.78125,211.78125 C3487.80205,221.885467 3484.3125,234.229094 3484.3125,248.8125 C3484.3125,265.895919 3488.73954,280.531189 3497.59375,292.71875 C3506.44796,304.906311 3516.81244,311 3528.6875,311 C3539.72922,311 3548.79163,305.791719 3555.875,295.375 C3562.95837,284.958281 3566.5,272.458406 3566.5,257.875 C3566.5,240.999916 3562.02088,226.572977 3553.0625,214.59375 C3544.10412,202.614523 3533.68756,196.625 3521.8125,196.625 L3521.8125,196.625 Z M3525.25,184.4375 C3544.00009,184.4375 3560.0416,191.208266 3573.375,204.75 C3586.7084,218.291734 3593.375,234.541572 3593.375,253.5 C3593.375,272.666763 3586.86465,289.072848 3573.84375,302.71875 C3560.82285,316.364652 3544.83343,323.1875 3525.875,323.1875 C3506.91657,323.1875 3490.7709,316.364652 3477.4375,302.71875 C3464.1041,289.072848 3457.4375,272.666763 3457.4375,253.5 C3457.4375,234.124903 3463.89577,217.7709 3476.8125,204.4375 C3489.72923,191.1041 3505.8749,184.4375 3525.25,184.4375 L3525.25,184.4375 Z M3705.25,184.125 C3713.58338,184.125 3720.51039,186.364561 3726.03125,190.84375 C3731.55211,195.322939 3735.35416,200.479137 3737.4375,206.3125 C3753.06258,191.520759 3769.20825,184.125 3785.875,184.125 C3812.12513,184.125 3825.25,204.1248 3825.25,244.125 L3825.25,278.8125 C3825.25,290.895894 3826.08333,300.166634 3827.75,306.625 C3828.16667,308.083341 3830.87498,309.489577 3835.875,310.84375 C3840.87502,312.197923 3844.41666,312.875 3846.5,312.875 C3847.125,312.875 3847.54167,314.124987 3847.75,316.625 C3847.95833,319.125013 3847.85417,320.895828 3847.4375,321.9375 C3826.60406,320.895828 3815.45834,320.375 3814,320.375 C3812.74999,320.375 3801.39594,320.895828 3779.9375,321.9375 C3779.10416,321.104163 3778.6875,319.38543 3778.6875,316.78125 C3778.6875,314.17707 3779.10416,312.875 3779.9375,312.875 C3782.43751,312.875 3786.13539,312.197923 3791.03125,310.84375 C3795.92711,309.489577 3798.58333,308.083341 3799,306.625 C3800.45834,300.583303 3801.1875,293.916703 3801.1875,286.625 L3801.1875,251.3125 C3801.1875,219.229006 3790.66677,203.1875 3769.625,203.1875 C3761.91663,203.1875 3755.25003,205.427061 3749.625,209.90625 C3743.99997,214.385439 3741.1875,218.083319 3741.1875,221 L3741.5,222.25 L3741.5,223.8125 C3742.33334,229.020859 3742.75,236.520784 3742.75,246.3125 L3742.75,281.625 C3742.75,291.833384 3743.58332,300.166634 3745.25,306.625 C3745.66667,308.083341 3748.37497,309.489577 3753.375,310.84375 C3758.37503,312.197923 3761.91666,312.875 3764,312.875 C3764.625,312.875 3765.04167,314.124987 3765.25,316.625 C3765.45833,319.125013 3765.35417,320.895828 3764.9375,321.9375 C3744.10406,320.895828 3732.95834,320.375 3731.5,320.375 C3730.24999,320.375 3718.89594,320.895828 3697.4375,321.9375 C3696.60416,321.104163 3696.1875,319.38543 3696.1875,316.78125 C3696.1875,314.17707 3696.60416,312.875 3697.4375,312.875 C3699.93751,312.875 3703.63539,312.197923 3708.53125,310.84375 C3713.42711,309.489577 3716.08333,308.083341 3716.5,306.625 C3717.95834,300.583303 3718.6875,293.291709 3718.6875,284.75 L3718.6875,252.875 C3718.6875,219.749834 3708.6876,203.1875 3688.6875,203.1875 C3682.43747,203.1875 3676.13545,205.531227 3669.78125,210.21875 C3663.42705,214.906273 3660.25,219.437478 3660.25,223.8125 L3660.25,278.8125 C3660.25,290.895894 3661.08332,300.166634 3662.75,306.625 C3663.16667,308.083341 3665.87497,309.489577 3670.875,310.84375 C3675.87503,312.197923 3679.41666,312.875 3681.5,312.875 C3682.125,312.875 3682.54167,314.124987 3682.75,316.625 C3682.95833,319.125013 3682.85417,320.895828 3682.4375,321.9375 C3661.60406,320.895828 3650.45834,320.375 3649,320.375 C3647.74999,320.375 3636.39594,320.895828 3614.9375,321.9375 C3614.10416,321.104163 3613.6875,319.38543 3613.6875,316.78125 C3613.6875,314.17707 3614.10416,312.875 3614.9375,312.875 C3617.43751,312.875 3621.13539,312.197923 3626.03125,310.84375 C3630.92711,309.489577 3633.58333,308.083341 3634,306.625 C3635.45834,300.583303 3636.1875,293.291709 3636.1875,284.75 L3636.1875,225.6875 C3636.1875,217.562459 3634.72918,211.937516 3631.8125,208.8125 C3629.72916,206.312487 3627.1771,204.593755 3624.15625,203.65625 C3621.1354,202.718745 3618.63543,202.25 3616.65625,202.25 C3614.67707,202.25 3613.6875,202.041669 3613.6875,201.625 C3613.6875,196.624975 3614.31249,194.020834 3615.5625,193.8125 C3637.64594,190.47915 3652.0208,187.770844 3658.6875,185.6875 C3658.89583,185.6875 3659.20833,185.635417 3659.625,185.53125 C3660.04167,185.427083 3660.25,185.375 3660.25,185.375 C3661.08334,185.375 3661.60417,186.260408 3661.8125,188.03125 C3662.02083,189.802092 3662.02083,191.104163 3661.8125,191.9375 C3660.97916,197.770863 3660.5625,201.937488 3660.5625,204.4375 C3660.5625,205.270837 3660.77083,205.6875 3661.1875,205.6875 C3661.39583,205.6875 3661.70833,205.479169 3662.125,205.0625 C3666.91669,200.062475 3673.42704,195.322939 3681.65625,190.84375 C3689.88546,186.364561 3697.74996,184.125 3705.25,184.125 L3705.25,184.125 Z M3955.25,184.125 C3963.58338,184.125 3970.51039,186.364561 3976.03125,190.84375 C3981.55211,195.322939 3985.35416,200.479137 3987.4375,206.3125 C4003.06258,191.520759 4019.20825,184.125 4035.875,184.125 C4062.12513,184.125 4075.25,204.1248 4075.25,244.125 L4075.25,278.8125 C4075.25,290.895894 4076.08333,300.166634 4077.75,306.625 C4078.16667,308.083341 4080.87498,309.489577 4085.875,310.84375 C4090.87502,312.197923 4094.41666,312.875 4096.5,312.875 C4097.125,312.875 4097.54167,314.124987 4097.75,316.625 C4097.95833,319.125013 4097.85417,320.895828 4097.4375,321.9375 C4076.60406,320.895828 4065.45834,320.375 4064,320.375 C4062.74999,320.375 4051.39594,320.895828 4029.9375,321.9375 C4029.10416,321.104163 4028.6875,319.38543 4028.6875,316.78125 C4028.6875,314.17707 4029.10416,312.875 4029.9375,312.875 C4032.43751,312.875 4036.13539,312.197923 4041.03125,310.84375 C4045.92711,309.489577 4048.58333,308.083341 4049,306.625 C4050.45834,300.583303 4051.1875,293.916703 4051.1875,286.625 L4051.1875,251.3125 C4051.1875,219.229006 4040.66677,203.1875 4019.625,203.1875 C4011.91663,203.1875 4005.25003,205.427061 3999.625,209.90625 C3993.99997,214.385439 3991.1875,218.083319 3991.1875,221 L3991.5,222.25 L3991.5,223.8125 C3992.33334,229.020859 3992.75,236.520784 3992.75,246.3125 L3992.75,281.625 C3992.75,291.833384 3993.58332,300.166634 3995.25,306.625 C3995.66667,308.083341 3998.37497,309.489577 4003.375,310.84375 C4008.37503,312.197923 4011.91666,312.875 4014,312.875 C4014.625,312.875 4015.04167,314.124987 4015.25,316.625 C4015.45833,319.125013 4015.35417,320.895828 4014.9375,321.9375 C3994.10406,320.895828 3982.95834,320.375 3981.5,320.375 C3980.24999,320.375 3968.89594,320.895828 3947.4375,321.9375 C3946.60416,321.104163 3946.1875,319.38543 3946.1875,316.78125 C3946.1875,314.17707 3946.60416,312.875 3947.4375,312.875 C3949.93751,312.875 3953.63539,312.197923 3958.53125,310.84375 C3963.42711,309.489577 3966.08333,308.083341 3966.5,306.625 C3967.95834,300.583303 3968.6875,293.291709 3968.6875,284.75 L3968.6875,252.875 C3968.6875,219.749834 3958.6876,203.1875 3938.6875,203.1875 C3932.43747,203.1875 3926.13545,205.531227 3919.78125,210.21875 C3913.42705,214.906273 3910.25,219.437478 3910.25,223.8125 L3910.25,278.8125 C3910.25,290.895894 3911.08333,300.166634 3912.75,306.625 C3913.16667,308.083341 3915.87497,309.489577 3920.875,310.84375 C3925.87503,312.197923 3929.41666,312.875 3931.5,312.875 C3932.125,312.875 3932.54167,314.124987 3932.75,316.625 C3932.95833,319.125013 3932.85417,320.895828 3932.4375,321.9375 C3911.60406,320.895828 3900.45834,320.375 3899,320.375 C3897.74999,320.375 3886.39594,320.895828 3864.9375,321.9375 C3864.10416,321.104163 3863.6875,319.38543 3863.6875,316.78125 C3863.6875,314.17707 3864.10416,312.875 3864.9375,312.875 C3867.43751,312.875 3871.13539,312.197923 3876.03125,310.84375 C3880.92711,309.489577 3883.58333,308.083341 3884,306.625 C3885.45834,300.583303 3886.1875,293.291709 3886.1875,284.75 L3886.1875,225.6875 C3886.1875,217.562459 3884.72918,211.937516 3881.8125,208.8125 C3879.72916,206.312487 3877.1771,204.593755 3874.15625,203.65625 C3871.1354,202.718745 3868.63543,202.25 3866.65625,202.25 C3864.67707,202.25 3863.6875,202.041669 3863.6875,201.625 C3863.6875,196.624975 3864.31249,194.020834 3865.5625,193.8125 C3887.64594,190.47915 3902.0208,187.770844 3908.6875,185.6875 C3908.89583,185.6875 3909.20833,185.635417 3909.625,185.53125 C3910.04167,185.427083 3910.25,185.375 3910.25,185.375 C3911.08334,185.375 3911.60417,186.260408 3911.8125,188.03125 C3912.02083,189.802092 3912.02083,191.104163 3911.8125,191.9375 C3910.97916,197.770863 3910.5625,201.937488 3910.5625,204.4375 C3910.5625,205.270837 3910.77083,205.6875 3911.1875,205.6875 C3911.39583,205.6875 3911.70833,205.479169 3912.125,205.0625 C3916.91669,200.062475 3923.42704,195.322939 3931.65625,190.84375 C3939.88546,186.364561 3947.74996,184.125 3955.25,184.125 L3955.25,184.125 Z M4241.1875,214.4375 L4241.1875,276.9375 C4241.1875,285.895878 4241.91666,293.812466 4243.375,300.6875 C4243.79167,302.145841 4244.93749,303.291663 4246.8125,304.125 C4248.68751,304.958337 4250.66666,305.479166 4252.75,305.6875 C4254.83334,305.895834 4256.91666,306 4259,306 L4261.8125,306.3125 C4262.4375,306.520834 4262.75,307.666656 4262.75,309.75 C4262.75,310.375003 4262.48959,311.364577 4261.96875,312.71875 C4261.44791,314.072923 4260.875,314.75 4260.25,314.75 C4257.12498,314.958334 4253.63544,315.374997 4249.78125,316 C4245.92706,316.625003 4242.33335,317.354163 4239,318.1875 C4235.66665,319.020837 4232.54168,319.854163 4229.625,320.6875 C4226.70832,321.520837 4224.41667,322.249997 4222.75,322.875 L4219.9375,323.5 C4218.27082,323.5 4217.4375,321.83335 4217.4375,318.5 L4217.4375,302.5625 L4216.8125,301 C4203.06243,315.791741 4189.41673,323.1875 4175.875,323.1875 C4168.16663,323.1875 4161.55211,321.260436 4156.03125,317.40625 C4150.51039,313.552064 4146.44793,308.447948 4143.84375,302.09375 C4141.23957,295.739552 4139.41667,289.59378 4138.375,283.65625 C4137.33333,277.71872 4136.8125,271.520866 4136.8125,265.0625 L4136.8125,225.6875 C4136.8125,217.562459 4135.35418,211.937516 4132.4375,208.8125 C4130.35416,206.312487 4127.8021,204.593755 4124.78125,203.65625 C4121.7604,202.718745 4119.26043,202.25 4117.28125,202.25 C4115.30207,202.25 4114.3125,202.041669 4114.3125,201.625 C4114.3125,196.624975 4114.93749,194.020834 4116.1875,193.8125 C4138.27094,190.47915 4152.6458,187.770844 4159.3125,185.6875 C4159.52083,185.6875 4159.83333,185.635417 4160.25,185.53125 C4160.66667,185.427083 4160.875,185.375 4160.875,185.375 C4161.70834,185.375 4162.22917,186.260408 4162.4375,188.03125 C4162.64583,189.802092 4162.64583,191.104163 4162.4375,191.9375 C4161.18749,201.93755 4160.5625,209.645806 4160.5625,215.0625 L4160.5625,257.25 C4160.5625,273.291747 4162.95831,285.114545 4167.75,292.71875 C4172.54169,300.322955 4180.35411,304.125 4191.1875,304.125 C4197.43753,304.125 4203.37497,301.677108 4209,296.78125 C4214.62503,291.885392 4217.4375,287.666684 4217.4375,284.125 L4217.4375,225.6875 C4217.4375,217.562459 4215.97918,211.937516 4213.0625,208.8125 C4210.97916,206.312487 4208.4271,204.593755 4205.40625,203.65625 C4202.3854,202.718745 4199.88543,202.25 4197.90625,202.25 C4195.92707,202.25 4194.9375,202.041669 4194.9375,201.625 C4194.9375,196.624975 4195.56249,194.020834 4196.8125,193.8125 C4218.89594,190.47915 4233.2708,187.770844 4239.9375,185.6875 C4240.14583,185.6875 4240.45833,185.635417 4240.875,185.53125 L4241.5,185.375 C4242.33334,185.375 4242.85417,186.260408 4243.0625,188.03125 C4243.27083,189.802092 4243.27083,191.104163 4243.0625,191.9375 C4241.81249,201.93755 4241.1875,209.437475 4241.1875,214.4375 L4241.1875,214.4375 Z M4367.4375,184.125 C4382.02091,184.125 4392.22914,189.333281 4398.0625,199.75 C4403.89586,210.166719 4406.8125,227.04155 4406.8125,250.375 L4406.8125,278.8125 C4406.8125,290.895894 4407.64582,300.166634 4409.3125,306.625 C4409.72917,308.083341 4412.43747,309.489577 4417.4375,310.84375 C4422.43753,312.197923 4425.97916,312.875 4428.0625,312.875 C4428.6875,312.875 4429.10417,314.124987 4429.3125,316.625 C4429.52083,319.125013 4429.41667,320.895828 4429,321.9375 C4408.16656,320.895828 4397.02084,320.375 4395.5625,320.375 C4395.14583,320.375 4384.20844,320.895828 4362.75,321.9375 C4361.91666,321.104163 4361.5,319.38543 4361.5,316.78125 C4361.5,314.17707 4361.91666,312.875 4362.75,312.875 C4365.25001,312.875 4368.73956,312.197923 4373.21875,310.84375 C4377.69794,309.489577 4380.14583,308.083341 4380.5625,306.625 C4382.02084,300.583303 4382.75,293.291709 4382.75,284.75 L4382.75,253.5 C4382.75,234.124903 4380.25003,220.895869 4375.25,213.8125 C4370.24998,206.729131 4362.12506,203.1875 4350.875,203.1875 C4344.2083,203.1875 4337.80211,205.635392 4331.65625,210.53125 C4325.51039,215.427108 4322.4375,219.854147 4322.4375,223.8125 L4322.4375,278.8125 C4322.4375,290.895894 4323.27083,300.166634 4324.9375,306.625 C4325.35417,308.083341 4328.06247,309.489577 4333.0625,310.84375 C4338.06252,312.197923 4341.60416,312.875 4343.6875,312.875 C4344.3125,312.875 4344.72917,314.124987 4344.9375,316.625 C4345.14583,319.125013 4345.04167,320.895828 4344.625,321.9375 C4323.79156,320.895828 4312.64584,320.375 4311.1875,320.375 C4309.93749,320.375 4298.58344,320.895828 4277.125,321.9375 C4276.29166,321.104163 4275.875,319.38543 4275.875,316.78125 C4275.875,314.17707 4276.29166,312.875 4277.125,312.875 C4279.62501,312.875 4283.32289,312.197923 4288.21875,310.84375 C4293.11461,309.489577 4295.77083,308.083341 4296.1875,306.625 C4297.64584,300.583303 4298.375,293.291709 4298.375,284.75 L4298.375,225.6875 C4298.375,217.562459 4296.91668,211.937516 4294,208.8125 C4291.91666,206.312487 4289.3646,204.593755 4286.34375,203.65625 C4283.3229,202.718745 4280.82293,202.25 4278.84375,202.25 C4276.86457,202.25 4275.875,202.041669 4275.875,201.625 C4275.875,196.624975 4276.49999,194.020834 4277.75,193.8125 C4299.83344,190.47915 4314.2083,187.770844 4320.875,185.6875 C4321.08333,185.6875 4321.39583,185.635417 4321.8125,185.53125 C4322.22917,185.427083 4322.4375,185.375 4322.4375,185.375 C4323.27084,185.375 4323.79167,186.260408 4324,188.03125 C4324.20833,189.802092 4324.20833,191.104163 4324,191.9375 C4323.16666,197.770863 4322.75,201.937488 4322.75,204.4375 C4322.75,205.270837 4322.95833,205.6875 4323.375,205.6875 C4323.58333,205.6875 4323.89583,205.479169 4324.3125,205.0625 C4329.10419,200.062475 4335.61454,195.322939 4343.84375,190.84375 C4352.07296,186.364561 4359.93746,184.125 4367.4375,184.125 L4367.4375,184.125 Z M4467.59375,146.78125 C4464.5729,143.760402 4463.0625,140.062522 4463.0625,135.6875 C4463.0625,131.312478 4464.5729,127.614598 4467.59375,124.59375 C4470.6146,121.572902 4474.31248,120.0625 4478.6875,120.0625 C4483.06252,120.0625 4486.7604,121.572902 4489.78125,124.59375 C4492.8021,127.614598 4494.3125,131.312478 4494.3125,135.6875 C4494.3125,140.062522 4492.8021,143.760402 4489.78125,146.78125 C4486.7604,149.802098 4483.06252,151.3125 4478.6875,151.3125 C4474.31248,151.3125 4470.6146,149.802098 4467.59375,146.78125 L4467.59375,146.78125 Z M4493.0625,278.8125 C4493.0625,290.895894 4493.89582,300.166634 4495.5625,306.625 C4495.97917,308.083341 4498.68747,309.489577 4503.6875,310.84375 C4508.68753,312.197923 4512.22916,312.875 4514.3125,312.875 C4514.9375,312.875 4515.35417,314.124987 4515.5625,316.625 C4515.77083,319.125013 4515.66667,320.895828 4515.25,321.9375 C4494.41656,320.895828 4483.27084,320.375 4481.8125,320.375 C4480.35416,320.375 4469.00011,320.895828 4447.75,321.9375 C4446.91666,321.104163 4446.5,319.38543 4446.5,316.78125 C4446.5,314.17707 4446.91666,312.875 4447.75,312.875 C4450.25001,312.875 4453.94789,312.197923 4458.84375,310.84375 C4463.73961,309.489577 4466.39583,308.083341 4466.8125,306.625 C4468.27084,300.583303 4469,293.291709 4469,284.75 L4469,225.6875 C4469,217.562459 4467.54168,211.937516 4464.625,208.8125 C4462.54166,206.312487 4459.9896,204.593755 4456.96875,203.65625 C4453.9479,202.718745 4451.44793,202.25 4449.46875,202.25 C4447.48957,202.25 4446.5,202.041669 4446.5,201.625 C4446.5,196.624975 4447.12499,194.020834 4448.375,193.8125 C4470.45844,190.47915 4484.8333,187.770844 4491.5,185.6875 L4492.125,185.375 L4493.0625,185.375 C4493.89584,185.375 4494.41667,186.260408 4494.625,188.03125 C4494.83333,189.802092 4494.83333,191.104163 4494.625,191.9375 C4493.58333,200.270875 4493.0625,207.7708 4493.0625,214.4375 L4493.0625,278.8125 Z M4545.5625,204.125 L4527.4375,204.125 C4526.39583,204.125 4525.875,201.937522 4525.875,197.5625 C4525.875,196.312494 4525.97917,195.583334 4526.1875,195.375 C4532.2292,192.666653 4538.79163,187.145875 4545.875,178.8125 C4548.16668,176.104153 4550.40624,173.031267 4552.59375,169.59375 C4554.78126,166.156233 4556.60416,163.187512 4558.0625,160.6875 C4559.52084,158.187487 4560.25,156.833334 4560.25,156.625 C4566.50003,156.625 4569.625,157.145828 4569.625,158.1875 L4569.625,189.125 C4575.04169,189.125 4583.27078,189.177083 4594.3125,189.28125 C4605.35422,189.385417 4611.1875,189.4375 4611.8125,189.4375 C4613.47918,189.4375 4614.3125,190.374991 4614.3125,192.25 C4614.3125,196.000019 4613.27084,199.958312 4611.1875,204.125 L4569.625,204.125 L4569.625,280.6875 C4569.625,289.020875 4571.7604,295.687475 4576.03125,300.6875 C4580.3021,305.687525 4585.87497,308.1875 4592.75,308.1875 C4599.00003,308.1875 4605.4583,306.208353 4612.125,302.25 C4612.75,301.833331 4613.68749,302.718739 4614.9375,304.90625 C4616.18751,307.093761 4616.70833,308.291666 4616.5,308.5 C4613.37498,311.83335 4608.58337,315.114567 4602.125,318.34375 C4595.66663,321.572933 4589.00003,323.1875 4582.125,323.1875 C4571.70828,323.1875 4563.01045,319.750034 4556.03125,312.875 C4549.05205,305.999966 4545.5625,296.208397 4545.5625,283.5 L4545.5625,204.125 Z M4654.3125,186.9375 C4657.85418,186.9375 4661.1354,186.833334 4664.15625,186.625 C4667.1771,186.416666 4670.61456,186.208334 4674.46875,186 C4678.32294,185.791666 4681.70832,185.583334 4684.625,185.375 C4685.04167,186.625006 4685.25,188.187491 4685.25,190.0625 C4685.25,192.979181 4684.83334,194.4375 4684,194.4375 C4682.33333,194.4375 4679.57294,195.166659 4675.71875,196.625 C4671.86456,198.083341 4669.72917,199.541659 4669.3125,201 L4669.3125,201.625 C4669.3125,205.375019 4680.45822,232.562247 4702.75,283.1875 L4726.5,214.75 C4727.95834,210.374978 4728.6875,207.145844 4728.6875,205.0625 C4728.6875,201.937484 4727.07293,199.385427 4723.84375,197.40625 C4720.61457,195.427073 4716.29169,194.4375 4710.875,194.4375 C4710.04166,194.4375 4709.625,193.083347 4709.625,190.375 C4709.625,187.874988 4710.04166,186.208337 4710.875,185.375 C4713.58335,185.583334 4717.64581,185.895831 4723.0625,186.3125 C4728.47919,186.729169 4733.68747,186.9375 4738.6875,186.9375 C4743.27086,186.9375 4748.27081,186.729169 4753.6875,186.3125 C4759.10419,185.895831 4763.16665,185.583334 4765.875,185.375 C4766.29167,186.625006 4766.5,188.187491 4766.5,190.0625 C4766.5,192.979181 4766.08334,194.4375 4765.25,194.4375 C4762.54165,194.4375 4758.84377,195.374991 4754.15625,197.25 C4749.46873,199.125009 4746.39584,202.145812 4744.9375,206.3125 L4689,357.25 C4684.20831,370.166731 4678.7917,379.177058 4672.75,384.28125 C4666.7083,389.385442 4661.18753,391.9375 4656.1875,391.9375 C4651.81248,391.9375 4648.58334,390.583347 4646.5,387.875 C4644.41666,385.166653 4643.375,382.458347 4643.375,379.75 C4643.375,375.166644 4644.83332,371.833344 4647.75,369.75 C4665.04175,369.75 4676.49997,360.791756 4682.125,342.875 C4683.16667,339.749984 4684.41666,336.000022 4685.875,331.625 C4687.33334,327.249978 4688.47916,323.708347 4689.3125,321 L4644.625,211.625 C4642.33332,206.624975 4640.25001,203.083344 4638.375,201 C4636.49999,199.124991 4633.63544,197.562506 4629.78125,196.3125 C4625.92706,195.062494 4622.85418,194.4375 4620.5625,194.4375 C4619.72916,194.4375 4619.3125,193.083347 4619.3125,190.375 C4619.3125,187.874988 4619.72916,186.208337 4620.5625,185.375 C4642.02094,186.416672 4653.27083,186.9375 4654.3125,186.9375 L4654.3125,186.9375 Z" id="the-xiph-open-source" fill="#FFFFFF" sketch:type="MSShapeGroup"></path>
        </g>
    </g>
</svg>